<svg
  version="1.0"
  xmlns="http://www.w3.org/2000/svg"
  width="26"
  height="26"
  viewBox="0 0 72.000000 65.000000"
  preserveAspectRatio="xMidYMid meet"
  class="zigzag__basket"
>
  <g
    transform="translate(0.000000,65.000000) scale(0.100000,-0.100000)"
    fill="#fd22b0"
    stroke="none"
  >
    <path
      d="M325 623 c-29 -8 -73 -41 -87 -66 -6 -12 -14 -51 -17 -87 l-6 -65
-98 -3 c-95 -3 -97 -3 -92 -25 6 -26 75 -369 75 -374 0 -2 117 -3 260 -3 l260
0 5 22 c6 26 75 370 75 374 0 2 -44 5 -97 6 l-98 3 -6 65 c-3 36 -11 75 -17
87 -26 47 -104 80 -157 66z m95 -90 c16 -21 20 -38 18 -77 l-3 -51 -75 0 -75
0 -3 51 c-4 68 23 104 78 104 30 0 43 -6 60 -27z m53 -225 c-4 -7 -27 -41 -51
-75 l-44 -63 46 0 46 0 0 -40 0 -40 -116 0 -116 0 17 28 c10 15 33 48 51 74
l33 47 -42 3 c-41 3 -42 4 -45 41 l-3 37 116 0 c90 0 114 -3 108 -12z"
    />
  </g>
</svg>