<svg
  version="1.0"
  xmlns="http://www.w3.org/2000/svg"
  width="28"
  height="28"
  viewBox="0 0 32.000000 32.000000"
  preserveAspectRatio="xMidYMid meet"
>
  <g
    transform="translate(0.000000,32.000000) scale(0.100000,-0.100000)"
    fill="#8a8a8a"
    stroke="none"
  >
    <path
      d="M30 230 l0 -61 58 3 57 3 3 58 3 57 -61 0 -60 0 0 -60z m90 5 c0 -33
-2 -35 -35 -35 -32 0 -35 3 -35 28 0 16 3 32 7 35 3 4 19 7 35 7 25 0 28 -3
28 -35z"
    />
    <path
      d="M172 233 l3 -58 58 -3 57 -3 0 61 0 60 -60 0 -61 0 3 -57z m96 0 c3
-32 2 -33 -32 -33 -35 0 -36 1 -36 36 0 34 1 35 33 32 28 -3 32 -7 35 -35z"
    />
    <path
      d="M30 90 l0 -60 60 0 61 0 -3 58 -3 57 -57 3 -58 3 0 -61z m90 -6 c0
-34 -1 -35 -32 -32 -29 3 -33 7 -36 36 -3 31 -2 32 32 32 35 0 36 -1 36 -36z"
    />
    <path
      d="M177 143 c-4 -3 -7 -30 -7 -60 l0 -53 60 0 60 0 0 60 0 60 -53 0
c-30 0 -57 -3 -60 -7z m91 -55 c-3 -29 -7 -33 -35 -36 -32 -3 -33 -2 -33 32 0
35 1 36 36 36 34 0 35 -1 32 -32z"
    />
  </g>
</svg>