<svg
  version="1.0"
  xmlns="http://www.w3.org/2000/svg"
  width="24"
  height="24"
  viewBox="0 0 32.000000 32.000000"
  preserveAspectRatio="xMidYMid meet"
  class="product__like__btn absolute right-3 bottom-2"
>
  <g
    transform="translate(0.000000,32.000000) scale(0.100000,-0.100000)"
    fill="#ffffff"
    stroke="none"
  >
    <path
      d="M32 270 c-29 -27 -37 -64 -22 -100 13 -31 130 -140 150 -140 20 0
137 109 150 140 24 59 -16 120 -79 120 -19 0 -43 -7 -53 -17 -17 -15 -19 -15
-36 0 -26 24 -83 22 -110 -3z m98 -25 c7 -8 20 -15 30 -15 10 0 23 7 30 15 16
20 64 19 84 -1 32 -31 20 -65 -46 -126 -35 -32 -65 -58 -68 -58 -3 0 -33 26
-68 58 -66 61 -78 95 -46 126 20 20 68 21 84 1z"
    />
  </g>
</svg>