<svg
  version="1.0"
  xmlns="http://www.w3.org/2000/svg"
  width="28"
  height="28"
  viewBox="0 0 83.000000 83.000000"
  preserveAspectRatio="xMidYMid meet"
>
  <g
    transform="translate(0.000000,83.000000) scale(0.100000,-0.100000)"
    fill="#242424"
    stroke="none"
  >
    <path
      d="M335 775 c-112 -30 -213 -116 -263 -223 -24 -50 -27 -69 -27 -157 1
-134 25 -197 109 -281 85 -84 147 -108 281 -109 88 0 107 4 157 27 112 52 191
150 224 278 51 198 -82 411 -291 465 -71 18 -123 18 -190 0z m245 -250 c0 -9
-29 -55 -65 -103 l-65 -87 80 -3 c44 -2 80 -5 80 -8 0 -2 -12 -22 -26 -44
l-27 -40 -127 0 c-93 0 -130 4 -139 13 -8 10 6 35 59 105 39 51 70 94 70 97 0
3 -29 5 -65 5 l-65 0 0 40 0 40 145 0 c124 0 145 -2 145 -15z"
    />
  </g>
</svg>